<svg width="512" height="512" xmlns="http://www.w3.org/2000/svg">
 <g id="Layer_1" stroke="null">
  <title>Layer 1</title>
  <ellipse fill="#40514e" cx="256" cy="254" id="svg_1" rx="225.5" ry="220.5" stroke="#40514e" stroke-width="0"/>
  <ellipse fill="#f5f5f5" cx="255" cy="249" id="svg_2" rx="137.5" ry="111.5" stroke="#000" stroke-width="0"/>
  <ellipse transform="rotate(-89.0469 264.095 387.371)" fill="#f5f5f5" cx="264.09487" cy="387.37127" id="svg_3" rx="140.62736" ry="73.49916" stroke-width="0" stroke="#000"/>
  <path transform="rotate(-42.8843 147.203 169.976)" fill="#f5f5f5" stroke-width="0" d="m129.10832,224.48245c-21.81701,-5.91855 -37.45472,-24.72461 -33.9009,-40.76959c2.24093,-10.11758 49.519,-71.53833 53.64787,-69.69605c1.34761,0.60129 13.33964,14.92105 26.64897,31.82168c21.32013,27.07304 24.19875,32.12132 24.19875,42.43778c0,20.91103 -23.18069,38.03954 -51.01391,37.69484c-8.12213,-0.1006 -16.93348,-0.77049 -19.58078,-1.48865l0,0l0,-0.00001zm21.85818,-10.51748c0.72215,-2.70724 -0.96476,-4.02754 -5.14591,-4.02754c-9.52927,0 -22.7479,-8.71335 -25.70115,-16.94146c-3.15031,-8.77715 -11.50319,-9.82102 -12.73695,-1.59174c-2.37702,15.85487 39.57944,37.57311 43.58401,22.56074l0.00001,0l-0.00001,0z" id="svg_4" stroke="#000"/>
  <path transform="rotate(36.5068 359.203 165.976)" fill="#f5f5f5" stroke-width="0" d="m341.10832,220.48245c-21.81701,-5.91854 -37.45472,-24.72461 -33.9009,-40.76959c2.24094,-10.11758 49.519,-71.53833 53.64787,-69.69605c1.34761,0.60129 13.33965,14.92105 26.64897,31.82168c21.32013,27.07304 24.19875,32.12132 24.19875,42.43778c0,20.91103 -23.18069,38.03954 -51.01391,37.69484c-8.12213,-0.1006 -16.93348,-0.77049 -19.58078,-1.48865l0,-0.00001zm21.85818,-10.51747c0.72215,-2.70724 -0.96476,-4.02755 -5.14591,-4.02755c-9.52927,0 -22.7479,-8.71335 -25.70115,-16.94145c-3.15031,-8.77716 -11.50319,-9.82102 -12.73695,-1.59174c-2.37702,15.85487 39.57944,37.57311 43.584,22.56074l0.00001,0z" id="svg_5" stroke="#000"/>
 </g>

</svg>