<svg width="512" height="512" xmlns="http://www.w3.org/2000/svg" style="vector-effect: non-scaling-stroke;" stroke="null">
 <g stroke="null" id="Layer_1">
  <title stroke="null">Layer 1</title>
  <path id="svg_35" d="m411.42499,132.12083c0,10.49341 -68.7243,19 -153.50002,19m153.50002,-19l0,0c0,10.49341 -68.7243,19 -153.50002,19c-84.77569,0 -153.49996,-8.50657 -153.49996,-19m0,0l0,0c0,-10.4934 68.72428,-19 153.49996,-19c84.77572,0 153.50002,8.5066 153.50002,19l0,76.00004c0,10.4934 -68.7243,18.99997 -153.50002,18.99997c-84.77569,0 -153.49996,-8.50657 -153.49996,-18.99997l0,-76.00004z" stroke-width="0" stroke="#40514e" fill="#40514e"/>
  <path id="svg_36" d="m408.42499,224.12083c0,10.49342 -68.7243,19.00001 -153.50002,19.00001m153.50002,-19.00001l0,0c0,10.49342 -68.7243,19.00001 -153.50002,19.00001c-84.77569,0 -153.49996,-8.50658 -153.49996,-19.00001m0,0l0,0c0,-10.49339 68.72427,-18.99999 153.49996,-18.99999c84.77572,0 153.50002,8.5066 153.50002,18.99999l0,76.00004c0,10.4934 -68.7243,18.99997 -153.50002,18.99997c-84.77569,0 -153.49996,-8.50657 -153.49996,-18.99997l0,-76.00004z" stroke-width="0" stroke="#40514e" fill="#40514e"/>
  <path id="svg_37" d="m408.42499,316.12083c0,10.49342 -68.7243,19.00001 -153.50002,19.00001m153.50002,-19.00001l0,0c0,10.49342 -68.7243,19.00001 -153.50002,19.00001c-84.77569,0 -153.49996,-8.50658 -153.49996,-19.00001m0,0l0,0c0,-10.49339 68.72427,-18.99999 153.49996,-18.99999c84.77572,0 153.50002,8.5066 153.50002,18.99999l0,76.00004c0,10.4934 -68.7243,18.99997 -153.50002,18.99997c-84.77569,0 -153.49996,-8.50657 -153.49996,-18.99997l0,-76.00004z" stroke-width="0" stroke="#40514e" fill="#40514e"/>
  <text font-weight="bold" transform="matrix(0.432958 0 0 0.569883 84.3831 90.7144)" stroke="#40514e" xml:space="preserve" text-anchor="start" font-family="sans-serif" font-size="250" id="svg_38" y="391.36711" x="145.38062" stroke-width="0" fill="#f5f5f5">SQL</text>
 </g>

</svg>