<svg width="512" height="512" xmlns="http://www.w3.org/2000/svg" style="vector-effect: non-scaling-stroke;" stroke="null">
 <g stroke="null" id="Layer_1">
  <title stroke="null">Layer 1</title>
  <rect transform="rotate(54.959 279.917 331.327)" stroke="#40514e" id="svg_48" height="27.51863" width="174.46705" y="317.56767" x="192.6834" stroke-width="0" fill="#40514e"/>
  <rect transform="rotate(-40.2415 299.035 217.149)" stroke="#40514e" id="svg_49" height="27.51863" width="190.49846" y="203.38945" x="203.7863" stroke-width="0" fill="#40514e"/>
  <rect transform="rotate(3.93659 163.917 263.327)" stroke="#40514e" id="svg_50" height="27.51863" width="174.46705" y="249.56767" x="76.6834" stroke-width="0" fill="#40514e"/>
  <rect transform="rotate(-46.7601 134.417 204.327)" stroke="#40514e" id="svg_51" height="48.93673" width="181.2689" y="179.85863" x="43.78247" stroke-width="0" fill="#40514e"/>
  <rect transform="rotate(48.9846 119.417 316.327)" stroke="#40514e" id="svg_52" height="48.93673" width="181.2689" y="291.85863" x="28.78247" stroke-width="0" fill="#40514e"/>
  <rect transform="rotate(10.1898 265.417 404.327)" stroke="#40514e" id="svg_53" height="48.93673" width="181.2689" y="379.85863" x="174.78247" stroke-width="0" fill="#40514e"/>
  <rect transform="rotate(121.001 386.25 358.04)" stroke="#40514e" id="svg_54" height="47.77959" width="184.10868" y="334.14977" x="294.19531" stroke-width="0" fill="#40514e"/>
  <rect transform="rotate(66.3751 404.388 188.31)" stroke="#40514e" id="svg_55" height="49.05142" width="161.1034" y="163.78478" x="323.83673" stroke-width="0" fill="#40514e"/>
  <rect transform="rotate(-1.14656 300.417 128.327)" stroke="#40514e" id="svg_56" height="48.93673" width="181.2689" y="103.85863" x="209.78247" stroke-width="0" fill="#40514e"/>
 </g>

</svg>